<svg id="Layer_1" data-name="Layer 1" xmlns="http://www.w3.org/2000/svg" viewBox="0 0 1200 1200"><defs><style>.cls-1{fill:#e9e8e8;}.cls-2{fill:#fff;}.cls-3,.cls-6{fill:none;}.cls-3{stroke:#1d252e;stroke-linecap:round;stroke-linejoin:round;stroke-width:6px;}.cls-4{fill:#1d252e;}.cls-5{fill:#9dd5c0;}</style></defs><path id="Oval" class="cls-1" d="M600,960.93c189.83,0,343.72-241.76,343.72-412.57S789.83,239.07,600,239.07,256.28,377.54,256.28,548.36,410.17,960.93,600,960.93Z"/><polygon id="Path-36" class="cls-2" points="658.8 506.84 619.59 499.6 612.52 431.37 626.65 408.24 633.38 384.37 651.72 382.69 661.2 365.61 656.48 347.16 650.82 341.6 658.92 309.74 537.13 298.97 529.95 302.85 513.36 334.27 504.21 370 511.39 400.68 525.12 419.67 544.98 432.94 552.49 432.25 557.53 503.96 505.86 516.32 560.33 561.85 664.68 553.19 658.8 506.84"/><path id="Path-20" class="cls-3" d="M618.68,493.44c-2.74-20-2.71-36.32-6.16-62.07,7.19-6.36,11.79-18.63,14.13-23.13s4.54-12.41,6.58-23.75q29.65-.36,27.47-24.33t-28.83-18.88"/><path id="Path-21" class="cls-3" d="M521.68,320.45q-20.91,34.14-16.49,58.34,11.91,48.76,49.67,55.28l2.23,58.23"/><path id="Path-22" class="cls-3" d="M653.28,331.81q-13-5.51-25-2.84"/><path id="Path-23" class="cls-4" d="M657.33,323.2q-20-6.93-33.93-5.66-1.81-6.21-4.49-13.91-27.81,34.83-89.2,1.83c-61.39-33,3.59-138.55,65.21-99.49q33.3,21.72,37.87,36.73,25.43,1.37,31.32,15.54Q675.86,277.21,657.33,323.2Z"/><path class="cls-5" d="M819.47,783.15s-31.39,74.92-29.72,128.65c-4.06,5.77-363.63,0-368.61,2-.9-64.28-11.33-81.07-13.6-124.36-2.67-50.87-48.94-214.27,4.89-255.22,29.26-24.65,99.41-40.18,144.45-32.16,0,19.73,33,38.33,33,38.33s34.3-12.33,34.3-41c78.54,7.67,154.6,24.7,168.71,51.8C811,586,839.27,655.8,819.47,783.15Z"/><path class="cls-3" d="M717,630c3.71,6.68,7.68,16.7,11.65,28.25"/><path class="cls-4" d="M1045.48,825.17c-6.71,20.54-22.33,46.69-50.55,72-73,51.6-168,55.26-252.07,60.08-60.37,3.66-119.25,19.28-178.35,32.11-120.09,32-253.31,6.18-339.43-93.17-24.9-23-51.71-44.4-75.31-65.22l-3.31-5.81Z"/><rect class="cls-6" x="0.17" width="1200" height="1200"/><path class="cls-2" d="M388.48,815l15.3-256-12.58,4.52s-93.28-26.91-96.87-52c-1.87-13.16,40.28-25.49,82.52-23.32,38.38,2,77.14,17.94,77.14,17.94l4.13,33.38,33,273.94C491.94,865.4,389.28,867,388.48,815Z"/><polyline class="cls-3" points="457.49 534.41 458.12 539.52 491.14 813.46"/><path class="cls-3" d="M388.48,815l15.3-256-12.58,4.52S340,548.76,312,530.89"/><rect class="cls-5" x="304.39" y="340.18" width="112.76" height="247.97" rx="4.91" transform="translate(832.99 114.01) rotate(91.3)"/><rect class="cls-3" x="304.39" y="340.18" width="112.76" height="247.97" rx="4.91" transform="translate(832.99 114.01) rotate(91.3)"/><path class="cls-5" d="M765.59,713.8,733.1,672s.75-12.93,21.72-12.2,43.33,9.76,62.95,10.67c28.12,1.32,53.27-7,53.27-7l-34,50.25Z"/><path class="cls-5" d="M878.37,790.57c-10.44-25.66-26.49-52.48-41.29-76.77H765.59a789.72,789.72,0,0,0-41,76.77C700,844.61,714,862.42,743,875.18c21.47,9.47,95.59,9.47,117.07,0C889,862.42,896.28,834.6,878.37,790.57Z"/><path class="cls-2" d="M814.39,784.85q-.64-7.73-14.25-7.76t-13.69,7.23c0,3,1.44,5.14,4.37,6.48s8.83,2.9,17.69,4.62S823.87,800,828,804s6.22,9.19,6.19,15.57q0,11.17-10.05,17.22a43,43,0,0,1-22.9,6q-31.14-.12-35.42-24L783,817.5q1.85,12.54,18.37,12.59,15.48,0,15.51-10.44a7.51,7.51,0,0,0-3.73-6.93q-3.75-2.29-17.61-5t-20-8.34a18,18,0,0,1-6.11-13.87q0-8.9,8-15t23-6.08q29.92.1,31.3,19.93Z"/><polygon class="cls-2" points="809.39 766.01 793.03 765.95 793.07 751.06 809.45 751.11 809.39 766.01"/><rect class="cls-2" x="793.48" y="839.22" width="14.89" height="16.38" transform="translate(-49.5 1645.13) rotate(-89.78)"/><polygon class="cls-4" points="330.9 405.41 330.41 520.87 388.6 522 389.97 406.56 330.9 405.41"/><rect class="cls-5" x="260.31" y="805.05" width="89.61" height="19.01" rx="5.91" transform="translate(-0.94 0.35) rotate(-0.07)"/><rect class="cls-5" x="264.5" y="785.77" width="89.61" height="19.01" rx="5.91" transform="translate(-0.92 0.36) rotate(-0.07)"/><rect class="cls-5" x="253.34" y="766.49" width="89.61" height="19.01" rx="5.91" transform="translate(-0.9 0.35) rotate(-0.07)"/><rect class="cls-5" x="262.33" y="747.21" width="89.61" height="19.01" rx="5.91" transform="translate(-0.88 0.36) rotate(-0.07)"/><rect class="cls-5" x="260.31" y="727.93" width="89.61" height="19.01" rx="5.91" transform="translate(-0.85 0.35) rotate(-0.07)"/><path class="cls-3" d="M761.92,709.08,733.1,672s.75-12.93,21.72-12.2,43.33,9.76,62.95,10.67c28.12,1.32,53.27-7,53.27-7l-30.13,44.58"/><path class="cls-3" d="M760.65,722.1a768.37,768.37,0,0,0-36,68.47C700,844.61,714,862.42,743,875.18c21.47,9.47,95.59,9.47,117.07,0,28.94-12.76,36.24-40.58,18.33-84.61-9.2-22.63-22.78-46.17-36-68.07"/><path class="cls-2" d="M866.6,729.6c7.66-23.88-5.69-36.3-5.69-36.3s-33.64-12.25-65.38-10.65c-34.94,1.78-68.17,18-65.15,30.85,5.77,24.62,85.41,42.68,85.41,42.68S859,753.49,866.6,729.6Z"/><path class="cls-3" d="M866.6,729.6c7.66-23.88-5.69-36.3-5.69-36.3s-33.64-12.25-65.38-10.65c-34.94,1.78-68.17,18-65.15,30.85,5.77,24.62,85.41,42.68,85.41,42.68S859,753.49,866.6,729.6Z"/><line class="cls-3" x1="482.13" y1="612.55" x2="473.7" y2="653.97"/><path class="cls-4" d="M626.33,506.17c0,8.84-15.55,35.43-35.43,35.43S554.32,515,554.32,506.17,626.33,497.33,626.33,506.17Z"/><path class="cls-4" d="M615.13,797.45l-22.09,23-19.58-23.37C569.7,711.59,563.1,577.5,569,562.69s11.41-28,11.41-28h22.08s9.25,17.62,13.37,29.83S621,713.73,615.13,797.45Z"/></svg>